<svg xmlns="http://www.w3.org/2000/svg" xmlns:xlink="http://www.w3.org/1999/xlink" version="1.1" id="Layer_1" x="0px" y="0px" width="1200px" height="440px" viewBox="-4.725 200.945 1200 440" enable-background="new -4.725 200.945 1200 440" xml:space="preserve">
<rect x="-4.7" y="200.9" fill="#262626" width="1200" height="440"/>
<g>
	<g>
		<path fill="#848484" d="M377.34 486.154c0-1.426 0.61-2.037 2.036-2.037h22.609c0.815 0 1.2 0.6 1.2 2.037v1.018 c0 1.427-0.407 2.037-1.223 2.037h-18.942v14.869h16.906c0.814 0 1.2 0.6 1.2 2.037v1.019c0 1.426-0.407 2.037-1.222 2 h-16.906v15.888h18.942c0.815 0 1.2 0.6 1.2 2.036v1.019c0 1.426-0.407 2.037-1.223 2.037h-22.812 c-1.426 0-2.037-0.611-2.037-2.037v-41.959H377.34z"/>
		<path fill="#848484" d="M411.967 505.504c0-5.296-0.815-7.943-0.815-8.147c0-1.222 2.648-1.426 3.463-1.426 c1.63 0 1.8 2.6 2.2 4.277c2.648-3.055 6.519-4.888 10.185-4.888c6.722 0 10.6 3.9 10.6 10.592v22.608 c0 0.815-0.814 1.426-2.647 1.426h-0.204c-1.833 0-2.648-0.61-2.648-1.426v-21.998c0-3.87-2.443-6.314-6.721-6.314 c-2.852 0-6.111 1.834-8.147 4.481v23.831c0 0.815-0.815 1.427-2.648 1.427h-0.204c-1.833 0-2.647-0.611-2.647-1.427 L411.967 505.504L411.967 505.504z"/>
		<path fill="#848484" d="M452.093 527.095c-2.444-1.019-4.074-2.647-4.074-5.296c0-3.259 2.648-4.685 4.889-5.499 c-3.87-1.833-5.907-5.5-5.907-9.777c0-6.11 4.481-11.202 13.036-11.202c1.63 0 3.1 0.2 4.3 0.407h11.203 c0.814 0 1.2 0.6 1.2 2.036v0.815c0 1.426-0.407 2.036-1.222 2.036h-4.481c1.426 1.8 2.2 3.9 2.2 6.1 c0 6.11-4.481 11.202-13.036 11.202h-0.611c-1.629 0-5.5 0.408-5.5 2.648c0 5.1 22 0 22 12.8 c0 5.703-5.703 10.185-16.295 10.185c-8.556 0-14.666-1.833-14.666-8.555C444.76 531.2 447.8 528.5 452.1 527.095z M460.24 538.705c5.906 0 9.776-2.24 9.776-5.296c0-3.87-6.925-4.277-13.035-5.296c-2.648 1.019-6.519 3.259-6.519 6.1 C450.463 537.9 454.9 538.7 460.2 538.705z M467.369 506.522c0-5.092-3.259-6.518-7.333-6.518 c-4.073 0-7.333 1.629-7.333 6.518c0 5.1 3.3 6.5 7.3 6.519C464.111 513 467.4 511.6 467.4 506.522z"/>
		<path fill="#848484" d="M502.811 508.56v-3.056c0-2.852-1.833-5.499-7.129-5.499c-5.907 0-9.573 2.647-10.185 2.6 c-0.814 0-2.24-2.444-2.24-3.259c0-1.63 5.703-4.073 12.221-4.073c8.147 0 12.8 3.9 12.8 10.184v14.462 c0 5.3 0.8 7.9 0.8 8.147c0 1.223-2.648 1.426-3.463 1.426c-1.629 0-1.833-2.647-2.24-4.48 c-2.444 2.647-6.111 4.888-10.999 4.888c-6.314 0-11.203-3.055-11.203-9.776C481.22 509.4 493 508.6 502.8 508.56z M492.626 525.262c4.685 0 7.537-2.24 10.185-4.481v-7.739c-6.722 0-15.684 0-15.684 6.7 C487.127 523.4 489 525.3 492.6 525.262z"/>
		<path fill="#848484" d="M523.18 527.095c-2.444-1.019-4.074-2.647-4.074-5.296c0-3.259 2.648-4.685 4.889-5.499 c-3.87-1.833-5.907-5.5-5.907-9.777c0-6.11 4.481-11.202 13.036-11.202c1.63 0 3.1 0.2 4.3 0.407h11.203 c0.814 0 1.2 0.6 1.2 2.036v0.815c0 1.426-0.407 2.036-1.222 2.036h-4.481c1.426 1.8 2.2 3.9 2.2 6.1 c0 6.11-4.481 11.202-13.036 11.202h-0.611c-1.63 0-5.5 0.408-5.5 2.648c0 5.1 22 0 22 12.8 c0 5.703-5.704 10.185-16.295 10.185c-8.556 0-14.666-1.833-14.666-8.555C515.847 531.2 518.7 528.5 523.2 527.095z M531.123 538.705c5.907 0 9.777-2.24 9.777-5.296c0-3.87-6.926-4.277-13.036-5.296c-2.648 1.019-6.519 3.259-6.519 6.1 C521.346 537.9 525.8 538.7 531.1 538.705z M538.252 506.522c0-5.092-3.259-6.518-7.332-6.518 c-4.074 0-7.333 1.629-7.333 6.518c0 5.1 3.3 6.5 7.3 6.519C534.993 513 538.3 511.6 538.3 506.522z"/>
		<path fill="#848484" d="M554.751 486.154v-3.87c0-0.815 0.814-1.426 2.647-1.426h0.815c1.833 0 2.6 0.6 2.6 1.426v3.87 c0 0.814-0.814 1.426-2.647 1.426h-0.815C555.566 487.6 554.8 487 554.8 486.154z M554.954 496.9 c0-0.814 0.815-1.426 2.648-1.426h0.203c1.833 0 2.6 0.6 2.6 1.426v31.368c0 0.814-0.815 1.426-2.648 1.426h-0.203 c-1.833 0-2.648-0.611-2.648-1.426V496.949z"/>
		<path fill="#848484" d="M571.861 505.504c0-5.296-0.814-7.943-0.814-8.147c0-1.222 2.647-1.426 3.463-1.426 c1.629 0 1.8 2.6 2.2 4.277c2.647-3.055 6.518-4.888 10.185-4.888c6.722 0 10.6 3.9 10.6 10.592v22.608 c0 0.815-0.815 1.426-2.648 1.426h-0.203c-1.834 0-2.648-0.61-2.648-1.426v-21.998c0-3.87-2.444-6.314-6.722-6.314 c-2.852 0-6.11 1.834-8.147 4.481v23.831c0 0.815-0.814 1.427-2.647 1.427h-0.204c-1.833 0-2.647-0.611-2.647-1.427 L571.861 505.504L571.861 505.504z"/>
		<path fill="#848484" d="M611.987 527.095c-2.443-1.019-4.073-2.647-4.073-5.296c0-3.259 2.647-4.685 4.889-5.499 c-3.87-1.833-5.907-5.5-5.907-9.777c0-6.11 4.481-11.202 13.036-11.202c1.63 0 3.1 0.2 4.3 0.407h11.203 c0.814 0 1.2 0.6 1.2 2.036v0.815c0 1.426-0.407 2.036-1.222 2.036h-4.686c1.427 1.8 2.2 3.9 2.2 6.1 c0 6.11-4.481 11.202-13.036 11.202h-0.611c-1.629 0-5.499 0.408-5.499 2.648c0 5.1 22 0 22 12.8 c0 5.703-5.703 10.185-16.295 10.185c-8.555 0-14.666-1.833-14.666-8.555C604.655 531.2 607.7 528.5 612 527.095z M620.135 538.705c5.906 0 9.776-2.24 9.776-5.296c0-3.87-6.925-4.277-13.036-5.296c-2.647 1.019-6.518 3.259-6.518 6.1 C610.358 537.9 614.6 538.7 620.1 538.705z M627.264 506.522c0-5.092-3.26-6.518-7.333-6.518 c-4.074 0-7.333 1.629-7.333 6.518c0 5.1 3.3 6.5 7.3 6.519C624.004 513 627.3 511.6 627.3 506.522z"/>
		<path fill="#848484" d="M660.465 500.412h-3.26c-0.814 0-1.222-0.611-1.222-2.037v-0.814c0-1.426 0.407-2.037 1.222-2.037h3.26 l0.814-6.925c0-0.815 0.611-1.427 2.037-1.427h0.61c1.426 0 2 0.6 2 1.427v6.925h5.499c0.815 0 1.2 0.6 1.2 2 v0.814c0 1.426-0.407 2.037-1.223 2.037h-5.499v20.165c0 3.9 1.6 4.9 3.5 4.889s2.24-0.407 2.852-0.407 c0.814 0 1.4 2.4 1.4 3.055c0 1.833-3.056 2.037-4.685 2.037c-3.26 0-8.352-1.426-8.352-8.962L660.465 500.4 L660.465 500.412z"/>
		<path fill="#848484" d="M681.852 482.284c0-0.815 0.814-1.426 2.647-1.426h0.204c1.833 0 2.6 0.6 2.6 1.426v17.517 c2.241-2.24 5.703-4.48 9.981-4.48c4.277 0 10.4 1.6 10.4 10.592v22.608c0 0.815-0.815 1.426-2.648 1.426h-0.203 c-1.833 0-2.648-0.61-2.648-1.426v-21.998c0-3.87-2.24-6.314-6.722-6.314c-4.889 0-8.147 4.481-8.147 4.481v23.831 c0 0.815-0.814 1.427-2.647 1.427h-0.204c-1.833 0-2.647-0.611-2.647-1.427V482.284L681.852 482.284z"/>
		<path fill="#848484" d="M731.348 495.32c8.962 0 13.4 5.9 13.4 16.905c0 0.815-1.426 2.648-2.241 2.648h-20.572 c0.611 7.1 3.7 10.4 10 10.388c5.703 0 8.758-2.647 9.573-2.647c0.814 0 2.2 2.4 2.2 3.3 c0 1.629-5.093 4.073-11.61 4.073c-10.795 0-15.888-5.499-15.888-17.109C716.072 501.4 721.4 495.3 731.3 495.32z M738.884 510.189c0-6.722-2.647-10.185-7.74-10.185c-5.703 0-8.555 3.463-9.166 10.185H738.884z"/>
		<path fill="#848484" d="M769.437 485.543c0-0.814 0.815-1.426 2.648-1.426h0.61c1.834 0 2.6 0.6 2.6 1.426v42.978 c0 0.815-0.814 1.426-2.648 1.426h-0.61c-1.834 0-2.648-0.61-2.648-1.426V485.543z"/>
		<path fill="#848484" d="M787.157 505.504c0-5.296-0.814-7.943-0.814-8.147c0-1.222 2.647-1.426 3.463-1.426 c1.629 0 1.8 2.6 2.2 4.277c2.647-3.055 6.519-4.888 10.185-4.888c6.722 0 10.6 3.9 10.6 10.592v22.608 c0 0.815-0.815 1.426-2.648 1.426h-0.203c-1.834 0-2.648-0.61-2.648-1.426v-21.998c0-3.87-2.444-6.314-6.722-6.314 c-2.852 0-6.11 1.834-8.147 4.481v23.831c0 0.815-0.814 1.427-2.647 1.427h-0.204c-1.833 0-2.647-0.611-2.647-1.427 L787.157 505.504L787.157 505.504z"/>
		<path fill="#848484" d="M824.636 500.412h-3.259c-0.814 0-1.222-0.611-1.222-2.037v-0.814c0-1.426 0.407-2.037 1.222-2.037h3.259 l0.815-6.925c0-0.815 0.814-1.427 2.036-1.427h0.611c1.426 0 2 0.6 2 1.427v6.925h5.499 c0.815 0 1.2 0.6 1.2 2.037v0.814c0 1.426-0.408 2.037-1.223 2.037h-5.499v20.165c0 3.9 1.6 4.9 3.5 4.9 c1.833 0 2.24-0.407 2.852-0.407c0.814 0 1.4 2.4 1.4 3.055c0 1.833-3.056 2.037-4.685 2 c-3.26 0-8.352-1.426-8.352-8.962L824.636 500.412L824.636 500.412z"/>
		<path fill="#848484" d="M858.652 495.32c8.963 0 13.4 5.9 13.4 16.905c0 0.815-1.426 2.648-2.24 2.648h-20.572 c0.611 7.1 3.7 10.4 10 10.388c5.703 0 8.759-2.647 9.573-2.647c0.815 0 2.2 2.4 2.2 3.3 c0 1.629-5.092 4.073-11.609 4.073c-10.796 0-15.888-5.499-15.888-17.109C843.579 501.4 848.7 495.3 858.7 495.32z M866.188 510.189c0-6.722-2.647-10.185-7.739-10.185c-5.703 0-8.556 3.463-9.166 10.185H866.188z"/>
		<path fill="#848484" d="M880.854 505.504c0-5.296-0.814-7.943-0.814-8.147c0-1.222 2.647-1.426 3.462-1.426 c1.63 0 1.8 2.6 2.2 4.277c2.24-3.055 4.889-4.888 7.536-4.888c2.444 0 3.9 1 3.9 2.4 c0 1.223-0.611 3.463-1.222 3.463c-0.815 0-1.427-0.61-3.667-0.61c-3.463 0-5.906 3.87-5.906 3.87v23.831 c0 0.814-0.815 1.426-2.648 1.426h-0.203c-1.834 0-2.648-0.611-2.648-1.426V505.504L880.854 505.504z"/>
		<path fill="#848484" d="M904.278 505.504c0-5.296-0.814-7.943-0.814-8.147c0-1.222 2.647-1.426 3.463-1.426 c1.629 0 1.8 2.6 2.2 4.277c2.647-3.055 6.518-4.888 10.185-4.888c6.722 0 10.6 3.9 10.6 10.592v22.608 c0 0.815-0.815 1.426-2.648 1.426h-0.203c-1.834 0-2.648-0.61-2.648-1.426v-21.998c0-3.87-2.444-6.314-6.722-6.314 c-2.852 0-6.11 1.834-8.147 4.481v23.831c0 0.815-0.814 1.427-2.647 1.427h-0.204c-1.833 0-2.647-0.611-2.647-1.427 L904.278 505.504L904.278 505.504z"/>
		<path fill="#848484" d="M953.774 495.32c8.962 0 13.4 5.9 13.4 16.905c0 0.815-1.426 2.648-2.24 2.648h-20.572 c0.61 7.1 3.7 10.4 10 10.388c5.703 0 8.758-2.647 9.573-2.647c0.814 0 2.2 2.4 2.2 3.3 c0 1.629-5.092 4.073-11.61 4.073c-10.795 0-15.888-5.499-15.888-17.109C938.497 501.4 943.8 495.3 953.8 495.32z M961.31 510.189c0-6.722-2.647-10.185-7.74-10.185c-5.703 0-8.555 3.463-9.165 10.185H961.31z"/>
		<path fill="#848484" d="M976.994 500.412h-3.26c-0.814 0-1.222-0.611-1.222-2.037v-0.814c0-1.426 0.407-2.037 1.222-2.037h3.26 l0.814-6.925c0-0.815 0.611-1.427 2.037-1.427h0.61c1.426 0 2 0.6 2 1.427v6.925h5.5c0.814 0 1.2 0.6 1.2 2 v0.814c0 1.426-0.407 2.037-1.222 2.037h-5.5v20.165c0 3.9 1.6 4.9 3.5 4.889s2.24-0.407 2.852-0.407 c0.814 0 1.4 2.4 1.4 3.055c0 1.833-3.056 2.037-4.685 2.037c-3.259 0-8.352-1.426-8.352-8.962L976.994 500.4 L976.994 500.412z"/>
	</g>
	<g>
		<path fill="#FFFFFF" d="M428.669 320.149c17.109 0 33 6.1 33 10.795c0 2.852-3.666 9.98-5.907 10 c-1.833 0-10.185-7.536-26.887-7.536c-30.553 0-40.533 17.721-40.533 47.866c0 26.5 7.9 48.9 38.7 48.9 c8.962 0 17.721-1.018 22.202-2.24v-34.83h-20.165c-2.444 0-3.463-1.63-3.463-5.093v-2.852c0-3.666 1.019-5.092 3.463-5.092h30.35 c3.666 0 5.1 1.6 5.1 5.092v45.83c0 9.776-18.739 12.425-38.497 12.425c-34.423 0-53.366-19.351-53.366-60.495 C372.655 339.7 392.6 320.1 428.7 320.149z"/>
		<path fill="#FFFFFF" d="M482.443 378.2c0-14.259-2.037-20.98-2.037-21.795c0-3.259 7.129-4.073 9.369-4.073 c4.074 0 5.1 6.9 6.1 11.406c5.907-8.352 12.833-13.036 19.962-13.036c6.722 0 10 2.9 10 6.7 c0 3.259-1.426 9.37-3.463 9.37c-2.24 0-3.666-1.834-9.573-1.834c-8.962 0-15.888 10.592-15.888 10.592v63.347 c0 2.444-2.036 3.87-6.925 3.87h-0.611c-4.889 0-6.925-1.426-6.925-3.87V378.2L482.443 378.2z"/>
		<path fill="#FFFFFF" d="M573.083 350.702c23.627 0 35.6 15.7 35.6 45.015c0 2.037-3.666 7.129-5.703 7.129h-54.588 c1.426 19.1 9.6 27.9 26.7 27.905c15.073 0 23.425-7.333 25.258-7.333c2.444 0 6.1 6.7 6.1 8.6 c0 4.073-13.647 10.999-31.164 10.999c-28.72 0-42.367-14.666-42.367-45.626C532.753 367 546.6 350.7 573.1 350.702z M593.248 390.625c0-18.128-6.926-27.294-20.776-27.294c-15.073 0-23.017 9.166-24.239 27.294H593.248z"/>
		<path fill="#FFFFFF" d="M662.705 350.702c23.627 0 35.6 15.7 35.6 45.015c0 2.037-3.666 7.129-5.703 7.129h-54.588 c1.426 19.1 9.6 27.9 26.7 27.905c15.072 0 23.424-7.333 25.257-7.333c2.444 0 6.1 6.7 6.1 8.6 c0 4.073-13.646 10.999-31.164 10.999c-28.72 0-42.367-14.666-42.367-45.626C622.578 367 636.2 350.7 662.7 350.702z M683.073 390.625c0-18.128-6.925-27.294-20.775-27.294c-15.073 0-23.017 9.166-24.239 27.294H683.073z"/>
		<path fill="#FFFFFF" d="M714.034 378.2c0-14.259-2.037-20.98-2.037-21.795c0-3.259 7.129-4.073 9.37-4.073 c4.073 0 5.1 6.9 6.1 11.406c7.332-8.147 17.313-13.036 26.887-13.036c17.721 0 28.1 10.6 28.1 27.905v59.884 c0 2.444-2.037 3.87-6.926 3.87h-0.61c-4.889 0-6.926-1.426-6.926-3.87v-58.662c0-10.592-6.314-16.702-17.721-16.702 c-7.74 0-16.091 4.685-21.794 12.018v63.347c0 2.444-2.037 3.87-6.926 3.87h-0.611c-4.889 0-6.926-1.426-6.926-3.87L714.034 378.2 L714.034 378.2z"/>
		<path fill="#88CE02" d="M813.434 413.03c3.055 0 11.6 7.9 25.5 7.944c7.332 0 16.295-2.241 16.295-12.629 c0-20.369-49.904-12.425-49.904-53.162c0-25.461 20.776-35.441 40.941-35.441c18.332 0 31.2 6.3 31.2 12 c0 4.686-5.296 15.073-9.573 15.073c-2.24 0-7.536-4.277-19.146-4.277c-13.443 0-16.091 6.314-16.091 10.2 c0 19.8 49.9 11.8 49.9 52.348c0 28.72-20.165 38.293-39.107 38.293c-26.275 0-40.534-9.37-40.534-15.276 C802.842 423 809.8 413 813.4 413.03z"/>
		<path fill="#88CE02" d="M934.627 350.498c27.498 0 41.8 16.5 41.8 46.441c0 30.146-14.258 46.644-41.756 46.6 s-41.96-16.498-41.96-46.644C892.667 366.8 907.1 350.5 934.6 350.498z M950.515 396.9 c0-17.313-4.889-26.276-15.888-26.276s-16.092 8.963-16.092 26.276s5.093 26.5 16.1 26.479S950.515 414.3 950.5 396.939z"/>
		<path fill="#88CE02" d="M1031.99 350.498c12.221 0 28.7 4.1 28.7 12.018c0 3.26-6.314 13.24-9.166 13.2 c-0.611 0-1.629-0.611-3.055-1.223c-3.056-1.629-7.74-3.87-15.073-3.87c-13.851 0-19.554 8.556-19.554 26.3 s5.295 26.5 18.5 26.479c8.147 0 13.646-2.443 16.906-4.073c1.426-0.611 2.444-1.019 3.055-1.019 c3.87 0 9 9.8 9 13.036c0 9.776-24.646 12.018-30.146 12.018c-29.534 0-43.589-15.073-43.589-46.033 C987.586 366.8 1001 350.5 1032 350.498z"/>
		<path fill="#88CE02" d="M1073.745 317.501c0-3.666 3.056-5.499 10.388-5.499h4.889c7.333 0 10.4 1.8 10.4 5.499v68.439 l0.611 0.203L1121 354.776c2.037-2.852 5.5-3.26 10.592-3.26h6.314c6.518 0 9.8 1 9.8 2.6 c0 0.814-0.611 2.037-1.63 3.463l-24.035 34.219l28.108 44.607c0.815 1.6 1.4 2.6 1.4 3.7 c0 1.629-3.055 2.647-9.776 2.647h-7.333c-5.092 0-8.758-0.611-10.388-3.259l-24.035-39.719l-0.611 0.203v37.275 c0 3.666-3.055 5.499-10.388 5.499h-4.889c-7.332 0-10.388-1.833-10.388-5.499V317.501L1073.745 317.501z"/>
	</g>
	<g>
		<path d="M53.682 395.514C43.293 400.4 15.8 422.4 10.5 428.918c-5.5 6.518-7.129-3.666-1.426-20.572 c4.48-13.647 15.888-32.183 35.034-48.07c11.202-9.166 35.849-22.405 50.921-30.146c3.056-1.63 42.571-18.332 77.809-26.683 c3.056-0.815-3.666 5.092-4.685 8.351c-5.296 15.48-111.01 81.882-111.01 81.882L53.682 395.514z"/>
		<path d="M202.576 582.294c1.833 11 0.2 11.814-11.202 13.24c-11.407 1.426-19.758-2.852-22.813-5.703 c-3.056-2.853-3.666-9.166-0.611-14.869c1.834-3.667 3.667-4.889 4.686-9.37c1.018-4.277 1.833-5.296 2.647-6.925 c0.814-1.427 1.019-2.853 1.222-12.833c0.204-9.98 0-28.72 1.019-36.663c1.019-8.147 36.3 3.7 36.3 3.7 s-8.352 20.776-10.592 25.868c-2.241 5.093-2.037 14.869-2.037 16.906s-0.814 6.11-1.426 6.3 c-0.611 0.2 2 5.5 0.8 8.555C199.725 573.3 202.4 580.7 202.6 582.294z"/>
		<path d="M216.02 270.857c-1.223-7.74 0-23.018 1.629-25.461c5.093-6.926 31.979-7.74 37.7 0.4 c2.444 3.7 2.2 12.2 1.8 17.721c-0.407 5.499-1.833 17.313-2.037 21.184c-0.203 2.852-29.738 7.332-36.256-0.408 C217.038 282.3 216 270.9 216 270.857z"/>
		<path d="M275.904 562.536c12.425 9 22 10.6 28.3 13.851c6.314 3.3 4.7 9.574-5.907 11.4 c-8.555 1.629-21.998-1.63-30.96-1.63s-28.924 1.019-34.22-2.647c-6.11-4.277-3.463-12.222-3.463-12.222 c1.63-4.48 5.703-14.462 4.481-22.609s-2.852-12.628-5.907-20.165c-3.055-7.536-5.295-26.071-2.443-27.09s2.036 0 5.7 0.8 c3.666 0.8 7.7 2 15.7 2.037s16.702-1.223 19.758-1.833c3.055-0.611 5.499-1.223 4.5 5.1 c-1.018 6.314-4.073 18.128-4.277 27.294c-0.203 9.166-0.203 19.8 0.4 21.6 C268.163 558.3 272.6 560.3 275.9 562.536z"/>
		<g>
			<g>
				<path fill="#88CE02" d="M232.315 291.226c-22.405 19.351-65.791 24.646-130.155 49.5 c-16.499 6.314-60.495 25.257-71.087 45.015c35.645-20.572 48.9 7.7 51.7 36.867c2.647 27.3 16.3 41.6 51.3 40.7 c36.053-0.814 47.1 20.2 57 44.812c19.35-94.308 50.311-112.639 70.271-128.73 C303.809 345 251.7 284.3 232.3 291.226z"/>
				<path fill="#88CE02" d="M232.315 291.226c-53.773 18.739-106.936 23.424-169.467 61.9 c-14.869 9.166-46.237 29.941-52.348 69.661c22.812-25.258 75.567-57.032 140.136-77.197 c32.59-10.185 56.422-16.906 85.345-28.109C233.945 304.5 233.9 299.4 232.3 291.226z"/>
			</g>
			<path d="M300.957 402.846c0 0-3.87 13.24-11.61 17.518c0 0-5.703 2.037-17.109-4.277c-3.259-1.833-5.703-8.147-5.5-10.185 c0.204-4.889 3.259-7.129 3.259-7.129s3.26-5.5 7.129-5.296c3.871 0.2 10.4 0.8 12.426-1.019 C291.384 390.4 301.4 396.1 301 402.846z"/>
			<path d="M217.853 274.727c0 0-0.814 10.389-2.24 16.906c-0.204 1.223-6.314 1.833-10.796 3.7 c8.555 24.4 60.1 24.2 66.8 12.221c-3.259-2.24-9.777-5.703-12.832-6.925c-3.056-1.223-2.852-1.019-3.056-6.722 c-0.203-5.704-0.611-16.295-1.019-19.147C254.313 271.9 222.7 271.9 217.9 274.727z"/>
			<path fill="#EFEFEF" d="M219.89 274.727c0 0 0 5.907-0.611 11.61c-0.203 2.648-0.407 4.277-0.814 6.3 c-0.204 1.2 6.9 6.1 9 16.906c9.777 21.8 32.4 11 41.8 0.611c-3.259-2.241-8.555-5.296-14.665-7.74 c-3.056-1.223-1.63-3.87-1.833-9.573c-0.204-5.703-1.019-14.055-1.426-17.11C250.85 272.7 224.8 271.9 219.9 274.727z"/>
			<path d="M217.853 274.727c0 0-0.204 3.667-0.814 7.944c2.647 2.6 6.1 6.3 8.8 8.555c1.833 1.6 6.3 1.4 10.4 1.4 c3.666 0 6.9 0.4 8.351-0.407c3.26-1.63 7.944-5.703 10.592-8.759c-0.203-3.666-0.407-7.129-0.61-8.759 C254.313 271.9 222.7 271.9 217.9 274.727z"/>
			<path d="M236.389 290.207c-2.445 0-5.297-0.203-7.537-0.611c-1.019-0.203-2.037-0.814-2.852-1.222 c-1.426-1.019-2.852-2.24-4.48-3.463c-3.26-2.444-3.463-3.87-3.463-4.48c1.426-12.833-0.408-23.628-0.408-23.628 s-1.426-5.5 6.314-6.926s12.425-1.629 12.425-1.629s4.889 0 12.4 1.629c7.74 1.4 6.3 6.9 6.3 6.9 s-1.833 10.795-0.407 23.628c0 0.61-0.203 2.036-3.463 4.48c-2.852 2.037-5.092 4.277-7.332 4.7 C241.684 290 238.8 290.2 236.4 290.207z"/>
			<path d="M236.389 242.952c-13.443 0-16.092 3.666-19.962 7.74c-0.814 1.018-0.204 7.1 1.2 20.165h1.833 c0 0-1.223-3.667-1.019-7.944s1.019-4.073 0.407-5.092c-0.814-1.223-2.444-3.26 1.223-5.296 c3.666-2.037 9.4 1.6 16.3 1.833c6.925-0.204 12.832-3.87 16.498-1.833c3.666 2 2 4.1 1.2 5.3 c-0.815 1.2 0.2 0.8 0.4 5.092c0.203 4.277-1.019 7.944-1.019 7.944h1.833c1.222-13.036 2.037-18.739 1.426-19.758 C253.294 246.6 249.8 243.2 236.4 242.952z"/>
			<path d="M300.957 403.457c0 0-3.87 12.425-11.406 16.702c-1.63-0.814-1.426-2.036-2.852-3.87 c-0.408-0.61-1.834-1.019-2.444-1.629c-0.611-0.611-0.407-1.63-1.426-2.444c-0.815-0.815-1.426-0.204-2.241-0.815 c-0.814-0.814-1.019-1.833-1.629-2.443c-0.408-0.408-2.037-0.611-2.444-1.019c-1.019-1.019-9.98-2.852-9.573-4.889 c0.814-3.056 2.444-5.296 2.444-5.296s3.87-5.703 7.739-5.5c3.87 0.2 7.5 1 9.574-0.814 C288.94 389.4 301.6 396.9 301 403.457z"/>
			<path d="M274.478 313.428c0 0 12.832-3.056 21.6 5.296c8.759 8.6 8.1 19.1 5.5 25.7 c2.24 2.6 6.3 10 3.3 18.739c13.443 11.4 7.5 28.924-4.481 40.534c0 0-2.852-10.592-14.258-11.203 c0.407-4.073-10.592-7.333-5.5-17.925c-7.74-1.833-7.536-7.129-8.758-13.646C270.812 354.4 274.5 313.4 274.5 313.428z"/>
			<path fill="#EFEFEF" d="M269.793 319.131c0 0 14.869-7.536 23.6 1.019c8.758 8.6 6.3 17.9 3.7 24.4 c2.24 2.6 7.5 10.2 4.3 19.146c-0.611 2.037-5.092 2.037-8.352 7.333c8.147-4.686 13.24-3.463 15.1 2.4 c2.852 9.166-3.463 20.165-8.962 26.276c0-0.204-0.204-0.408-0.204-0.611c-0.814 3.056-1.833 8.962-7.943 15.5 c-3.056 3.259-5.5 2.852-8.963 2.037c-4.073-1.019-5.499-2.853-11.202-5.907c-3.259-1.833-1.426-4.074-1.426-5.907 c0-0.407 0.407-1.019 1.019-1.833c0.407-1.019 1.629-2.647 3.462-4.481c0 0 2.648-3.666 6.519-3.463 c3.87 0.2 7.943-0.61 8.962-1.629l0 0c0-7.129-8.147-7.333-5.296-19.554c0.204-0.611 1.223-1.63 4.481-2.037 c-4.889-1.019-7.129-1.223-10.592-4.481c-2.444-2.24-4.277-5.092-4.889-8.758C271.83 352.3 269.8 319.1 269.8 319.131z"/>
			<path d="M226.815 306.299c-1.222-1.63-7.536-9.777-19.554-13.036c-3.463-1.019-5.703 1.833-9.165 3.9 c-1.019-0.611-5.5-2.648-7.944-1.223s-4.073 2.852-6.518 3.87c-1.223-0.611-4.481-0.611-7.129 0.4 c-2.648 0.815-6.722 2.648-10.592 7.944c-2.444 8.8 43.2 2.2 43.2 2.24L226.815 306.299z"/>
			<path fill="#88CE02" d="M227.223 306.299c-6.519-2.241-5.5-9.777-19.962-10.999c-2.852-0.204-4.685 2.036-6.722 3.5 c1.019 1 2 2.6 2.6 4.277c-1.833-2.036-5.092-4.685-8.352-5.296c-3.055-0.61-5.092 1.63-8.351 3.3 c0.61 0.6 1.2 1.6 2 2.852c-2.852-1.833-4.888-2.444-8.758-1.019c-2.648 0.814-7.74 3.055-11.61 8.6 c-2.444 8.8 41.145-1.019 41.145-1.019L227.223 306.299z"/>
			<path d="M265.516 309.558c0 0 0-2.241-0.204-4.277c0-0.407-1.629-1.426-1.629-1.833l-0.407-0.408c0 0 3.259-1.833 5.703-0.814 c2.647 0.8 4.1 4.3 4.1 4.277c4.685-1.629 5.1 0.2 7.3 2.648c4.889-1.019 5.5 0.8 8.6 5.3 c0 0-3.666-0.611-10.795 0.61C271.219 316.1 265.5 309.4 265.5 309.558z"/>
			<path fill="#88CE02" d="M264.701 308.539c0 0 1.222-1.019 0.814-1.223c2.24-1.222 5.296-2.647 6.7 1.2 c4.685-1.63 5.3 0.6 7.5 3.056c5.703-2.648 6.1 0.6 6.5 2.036c-1.833 0-4.48 0.204-8.147 0.6 C271.219 315.3 264.5 308.3 264.7 308.539z"/>
			<path d="M195.448 303.447c0 0 11.6 4.1 21.4 3.462c9.777-0.814 26.479-1.629 35.4 3.667c0 0 9.166-3.26 17.721-1.019 c8.556 2.2 24.2 16.9 19.6 32.386c-0.408 1.019-3.056 2.648-6.111 3.667c0 0 1.6 6.925-1.222 12.6 c-2.852 5.5-9.166 16.092-9.37 30.757l0 0c-0.203 2.444-0.61 7.536-1.018 9.98c-15.888-0.61-40.33-6.518-64.365-6.11 c0.203-2.647 0.407-4.277 0.611-6.925h0.61c-1.222-6.722-1.629-10.185-2.852-15.277c-7.74-4.888-15.888-10.591-22.812-21.387 C176.301 338.5 195.4 303.4 195.4 303.447z"/>
			<path d="M274.071 413.438c0 0 12.6 45.219-2.24 64.162c0 0 2.2 8.758-2.852 18.128c-0.815 4.073-1.834 7.74-2.444 11.8 c-2.648 16.906-7.13 24.035-8.352 51.125l-12.222-0.203c0 0-1.426-19.554-5.703-29.942c-2.443-5.906-12.018-13.851-11.609-21.794 c0.407-6.111 1.629-11.203 12.018-19.351c0.814-11.813-11-23.017-9.166-67.013L274.071 413.438z"/>
			<path fill="#EFEFEF" d="M270.405 411.604c3.259 20.8 10.8 51.533-2.852 66.605c0.61 2.9 1 6.9 0.2 11.6 c-0.407 2.444-1.222 5.092-2.24 7.943c-2.037 4.889-2.852 12.018-3.463 16.295c-2.648 16.906-2.648 17.722-3.87 44.8 l-12.222-0.204c0 0-1.426-19.554-5.703-29.941c-2.443-5.907-7.536-10.999-7.943-18.943c-0.407-6.11 3.87-18.331 14.055-17.924 c-0.611-24.646-12.018-19.758-15.073-71.087L270.405 411.604z"/>
			<path fill="#EFEFEF" d="M195.448 303.447c0 0 4.5 1.4 9.4 1.833c4.889 0.4 10.2 0 14.869-0.204 c9.777-0.814 23.628-1.833 32.8 3.463c0 0 5.092-1.63 10.592-1.223c2.444 0.2 4.9 2.2 7.7 3.1 c8.962 2.2 17.5 17.1 13.6 30.553c-0.407 1.019-3.259 0-6.518 1.019c0.61 2.9 1 9.37-2.241 16.3 c-3.462 6.926-7.943 15.888-7.129 32.998c-21.387-1.019-30.96-2.444-52.144-3.463c-1.833-7.537-3.056-15.073-3.259-18.943 c2.852-1.426 4.48-2.647 6.722-5.092c-6.11 1.019-8.555 0.611-12.222-1.426c-3.666-2.037-10.184-8.555-13.443-12.832 c-0.407-0.408-2.647 6.313-7.739 6.518c-1.834-2.648 5.906-10.185 4.48-13.036C185.874 332.6 195.4 303.4 195.4 303.447z "/>
			<path d="M272.033 394.698c0 0 0.4 7.3 0.4 9.166c0 2 1.6 8.1 1.8 10.999c-2.24 3.87-12.017 12.629-29.738 15.9 c-17.517 3.666-40.737-23.831-40.737-23.831c0.611-2.648 2.648-10.389 4.074-14.462c0.204-0.407 0.611-1.426 0.611-1.833 C210.317 388 272 394.7 272 394.698z"/>
			<path fill="#EFEFEF" d="M267.553 395.31c0 5.1 0.8 8.8 1.4 12.018c1.018 5.9 2.6 9.8 2.6 13.6 c0 11.813-15.48 9.776-28.517 10.184c-17.517 3.667-32.386-23.831-32.386-23.831c1.222-4.685 2.037-9.98 3.87-14.462l0 0 c0.203-2.444 0.611-5.499 0.814-6.925c24.85 0 42.4 1.4 52.6 2.443C268.367 390.6 268 394.5 267.6 395.3 L267.553 395.31z"/>
			<path d="M247.998 421.585c0 0-10.795-24.035-43.182-16.905c-7.739 21.794-18.128 46.848-11.406 73.9 c-6.722 9.166-14.462 14.259-14.462 31.164c0 16.9 0.8 19.8 0.8 19.758l23.831 1.223c0 0 7.74-9.98 10.795-20.776 c0.815-3.056 1.63-8.555 1.019-14.869c0.814-1.222 4.277-4.073 4.685-9.573c0 0 11.61-6.11 18.332-20.979 C244.74 451.1 243.1 439.5 248 421.585z"/>
			<path fill="#EFEFEF" d="M247.998 421.585c-0.61-2.24-8.758-24.238-38.904-17.721c-17.72 47.256-11.202 66.81-8.555 75.4 c-12.018 15.276-17.517 18.535-15.072 49.496h15.888c7.332-11.61 8.962-15.888 9.369-31.164c0-0.611-2.24 1.222-3.87 3.3 c1.223-6.314 4.685-7.536 7.333-11.406c1.222-1.63 2.24-4.074 2.24-7.333c14.258-9.573 19.554-21.591 22.609-34.016 C241.481 439.5 244.3 425.5 248 421.585z"/>
			<path d="M197.688 388.792c0 0 5.5 0.2 10.4 1.833c4.685 1.6 4.7 2.6 6.5 4.685s6.314 5.1 5.5 8.1 c-0.408 1.63-1.426 2.037-2.852 3.463c-0.611 0.611-5.093 5.499-6.111 6.11c-0.611 0.407-1.426 1.019-2.037 1.4 c-0.61 0.407-2.443 1.63-3.055 2.037c-2.037 1.019-3.463 1.63-5.703 1.426c0 0-5.092-0.204-8.352-3.666 c0 0-0.407-1.63 0.408-2.444c0 0-4.278-3.667-5.5-6.111c-1.223-2.443-1.223-5.906-0.407-7.739 C186.893 396.1 194.8 391 197.7 388.792z"/>
			<path d="M202.781 586.979l-0.611 5.093c0 0-1.833 2.24-15.48 2.037c-13.851-0.204-17.517-4.481-18.739-6.722l-0.814-5.296 c0 0 2.648-3.87 3.259-3.87c4.481 0.4 19.8 6.5 30.4 8.147C201.762 586.4 202 586.8 202.8 586.979z"/>
			<path d="M232.315 576.591c0 2.24-0.204 2.24-0.204 4.481c2.444 1.8 8.6 2.9 20.2 2.6 c16.906-0.407 32.6 5.1 51.7 1.833l0.204-3.666l-1.833-0.203l-67.828-5.5L232.315 576.591z"/>
			<path d="M247.184 583.72c1.63 0 3.3 0 5.1 0c11-0.407 21.4 2 32.6 2.648c5.907-0.204 13.24-1.63 12.629-5.907 l-57.847-4.889C236.185 579.4 238.8 582.7 247.2 583.72z"/>
			<path d="M180.782 497.968c1.833 1.2 14.3 8.6 34.4 7.536c-0.408 3.87-0.204 11.407-9.166 24.6 c-4.481 6.518-8.352 17.925-9.166 32.387c0.204 3.3 2 6.11-0.407 10.388c0.814 2.6 4.1 7.9 5.7 11.2 c1.629 3.3 2.4 6.926-8.352 7.13c-10.999 0.203-28.72-1.019-26.275-9.573c1.223-4.481 4.685-9.166 5.093-11 c0.407-1.833 0.407-7.332 3.869-10.999c3.056-10.184 2.037-19.961 1.427-29.127C176.912 521 176.7 505.7 180.8 498 z"/>
			<path d="M199.725 331.963c14.462-19.351 2.24-34.83-20.979-30.146c-9.37 1.833-18.739 8.352-19.351 20.2 c-3.055 0.407-9.98 0.814-13.443 13.443c-2.647 9.777-4.073 11.61-8.759 16.498c-3.055 3.5 0.2 10.6 2.4 15.7 c7.537 17.5 30.8 19.1 46.4 32.386c5.296-1.426 10.795-7.332 12.425-11.202c-13.24-15.685-10.389-21.795-15.685-29.942 C188.522 356.8 201.6 348.9 199.7 331.963z"/>
			<path fill="#EFEFEF" d="M196.873 330.741c0.814-1.223 2.24-3.87 2.852-4.889c0.204-0.204 2.4 3.7 2.6 3.5 c5.499-8.963 6.925-21.999 0.61-23.221c-1.426-0.204-4.073-0.814-6.314-1.63c-4.073-1.426-7.739-1.426-14.258-0.203 c-8.962 1.629-17.924 8.147-17.924 17.517c0 0.6 6.3 2.4 8.1 9.981c-3.056-4.278-8.352-8.963-14.666-4.889 c-6.722 4.277-3.259 14.054-12.221 24.238c-3.056 3.463-2.648 7.5 0.6 15.684c5.296 12.8 30.4 19.8 44 32 c3.259-1.426 5.499-4.685 7.129-7.129c-9.166-9.573-12.833-18.536-15.48-25.054c-3.259-7.536-6.926-11.813-14.055-17.518 c3.667 1.4 6.5 2.9 8.1 4.074c1.833 1.2 4.5 1.4 6.9 0.611C191.781 350.7 196.5 338.5 196.9 330.741z"/>
			<path d="M285.477 334c-0.611 7.74-6.314 3.87-9.369 2.444c-6.111-2.648-12.222-4.481-19.351-4.481s-16.295 0.611-24.238 2.6 c-10.999 3.055-14.259 2.852-19.147 0.407c-4.888-2.648-13.442-9.166-13.442-9.166s-0.204 2 1.8 4.7 c2.647 3.3 8.6 7.3 16.5 9.98c3.87 1.2 6.9 0.4 10.389-0.407c18.128-4.481 37.274-5.296 53.4 4.5 c0.815 0.4 3.667-0.815 4.889-2.648C288.532 339.3 285.5 334 285.5 334z"/>
			<path fill="#001423" d="M192.8 411.604c1.629 1 3.7 1.6 5.9 3.463c0 0-1.833 0-2.647-0.814 C195.04 413.6 193 411.8 192.8 411.604L192.8 411.604z"/>
			<path fill="#EFEFEF" d="M251.665 250.081c-0.611-1.833-5.093-5.093-15.48-5.093c-11.203 0-14.462 3.463-14.665 5.3 c0 0.611-0.815 7.13-1.019 9.777c0 0 0 3.3 0.2 8.147c0.204 3.3 1 5.1 1.4 9.37c0.407 4.5 1.6 7.3 3.9 11 c1.019 0.6 1.8 1.2 2.9 1.426c4.074 0.8 11.2 1 15.1 0c2.24-0.611 5.092-4.481 5.703-7.944 c0.814-4.277 1.629-7.333 1.833-9.98c0.407-2.647 0.611-8.555 0.814-10.185C252.887 257.4 251.9 250.5 251.7 250.081z"/>
			<path d="M230.278 501.838c0 0 10.8 4.7 37.5 0.611c0 0-7.536 37.886-4.073 56.828c0 0 3.5 4.9 29.1 14.3 c0 0 11.4 2.9 11 8.556c0 0 0.4 1.222-13.443 0.814s-26.887-2.852-36.053-2.852s-18.943 0.407-20.572-2.24 c-1.833-2.444 0.407-8.759 3.055-12.426c2.853-3.869 2.037-6.722 1.834-13.646C238.018 533.6 224.2 514.9 230.3 501.838z "/>
			<path fill="#88CE02" d="M228.037 505.301c-1.426 2 0.2 9.8 2.2 17.313c2.037 7.5 6.5 12 7.5 24.4 c1.018 12.2 1.2 13.851-2.241 20.979s-4.481 13.6 7.5 13.851s18.536-0.204 30.8 1.6 c12.222 1.8 16.5 2.4 23.2 1.426s8.147-3.26 5.296-5.296c-2.852-2.037-14.666-4.277-19.758-8.352 c-4.889-3.666-18.739-9.777-18.942-11.406c-0.611-5.5-0.815-25.461 0.203-31.979c1.019-6.519 2.444-15.888 2.852-18.332 s2.444-4.889-1.019-4.074c-3.462 0.814-16.498 2.648-26.275 2.037C229.667 506.9 228.6 504.7 228 505.301z"/>
			<path opacity="0.3" enable-background="new    " d="M234.963 568.24c3.462 1.6 8.6 2.9 12.4 2.9 c0 0-1.427 6.7 0.8 10.795c2.24 4.074-16.295 1.63-16.295 1.63l-0.814-14.462L234.963 568.24z"/>
			<path opacity="0.3" enable-background="new    " d="M288.94 585.757c3.259-1.019 5.5-4.685 2.852-8.147 c-2.852-3.463-5.296-4.074-1.63-4.277c3.667-0.204 17.1 7.9 17.1 7.943l-6.926 6.314L288.94 585.757z"/>
			<path opacity="0.3" enable-background="new    " d="M227.426 513.244c4.685 1.6 11.8 2 17.9 1.8 c6.11-0.203 15.276-1.019 21.184-3.055c5.906-2.037 3.5 2.2 3.5 2.24l-3.259 3.056c0 0-7.74 3.055-20.368 2.9 c-14.869-0.204-19.351-1.833-19.351-1.833L227.426 513.244z"/>
			<path opacity="0.3" enable-background="new    " d="M227.833 523.429c4.686 1.6 11.8 2 17.9 1.8 c6.11-0.203 14.258-0.203 20.165-2.444c2.444-0.814 1 2.6 1 2.648l-1.019 1.833c0 0-7.944 2.852-20.369 2.6 c-14.869-0.203-17.517-1.426-17.517-1.426L227.833 523.429z"/>
			<path fill-opacity="0" d="M230.278 501.838c0 0 17.7 6.3 37.7 2.037c0 0-7.74 36.46-4.277 55.2 c0 0 3.5 4.9 29.1 14.258c0 0 11.4 2.9 11 8.555c0 0 0.4 1.223-13.443 0.8 c-13.851-0.407-26.887-2.852-36.053-2.852s-18.943 0.408-20.572-2.24c-1.833-2.444 0.407-8.759 3.055-12.425 c2.853-3.87 2.037-6.722 1.834-13.647C238.018 533.6 224.2 514.9 230.3 501.838z"/>
			<path fill-opacity="0" d="M230.278 501.838c0 0 17.7 6.1 37.7 1.833c0 0-7.74 36.664-4.277 55.4 c0 0 3.5 4.9 29.1 14.258c0 0 11.4 2.9 11 8.555c0 0 0.4 1.223-13.443 0.8 c-13.851-0.407-27.091-4.277-36.053-2.852c-9.573 1.63-18.943 1.019-20.572-2.24c-1.426-2.647 0.407-8.759 3.055-12.425 c2.853-3.87 2.037-6.722 1.834-13.647C238.018 533.6 224.2 514.9 230.3 501.838z"/>
			<path d="M214.39 380.645c0 1.4 15.9 9.4 24.6 10.999c8.759 1.6 27.1 0 29.942-0.611l-0.408 2.9 c0 0-21.794 3.259-38.496-1.222c-16.703-4.481-14.869-5.5-14.869-5.5L214.39 380.645z"/>
			<g>
				<path fill="#EFEFEF" d="M180.374 554.389c2.444 1.2 11.2 3.5 16.9 2.241c0.814-0.204 0-14.055 2.241-20.369 c3.259-8.759 8.555-15.888 10.998-31.367c-8.555-0.815-18.331-3.056-23.424-4.686 C180.578 520.2 182.8 537.3 180.4 554.389z"/>
				<path fill="#EFEFEF" d="M194.022 567.222c1.426 0.4 2.4 2 2.9 1.019c0.814-1.834-1.426-5.296-1.63-7.74 c0-0.204 0 0 0-0.204c-1.833-1.629-14.258-1.833-13.443-1.019c-1.426 2.648-3.666 2.241-4.48 7.5 c-0.407 2.6 2.9 0.4 5.9 0.203c-5.499 3.666-11.813 8.352-12.832 12.425c-1.222 5.7 0.8 7.3 6.9 10.4 c5.296 1.2 11.6 1.4 16.5 1.222c5.5-1.019 6.519-3.666 4.889-7.333C196.262 578.2 194.6 571.1 194 567.222z"/>
			</g>
			<path d="M196.262 302.632c6.722 3.9 16.1 2.9 19.6 2.648c0.815 0 8.963-1.426 9.37-1.223 c0.814 0.2 0.8 0.8 0.8 0.815s-3.055 1.629-9.98 2.036c-6.518 0.407-14.258 0-18.535-2.036 C192.392 302.6 196.3 302.6 196.3 302.632z"/>
			<path d="M265.516 306.502c1.222 0.8 9.2 3.9 12.6 7.536c3.055 3.3 1.4 3.1 0.8 2.2 c-0.814-1.019-7.129-5.296-9.573-6.314s-5.5-2.852-5.5-3.259S265.516 306.5 265.5 306.502z"/>
			<path fill="#EFEFEF" d="M195.243 391.032c5.907-0.407 12 1 15.9 5.092c2.037 2 5.3 4.3 4.9 6.3 c0 0.611-1.223 2.241-2.24 3.463c-0.611 0.814-2.444 2.647-3.056 3.259c-0.814 0.611-3.666 2.852-4.277 3.3 c-0.611 0.408-1.426 1.427-2.037 1.63c-2.036 1.019-4.277 0.204-6.314-0.814c-2.036-1.019 0.408-1.223-1.833-2.852 c-5.499-3.87-8.555-6.519-6.314-14.055C190.152 394.9 192.4 393.3 195.2 391.032z"/>
		</g>
		<path opacity="0.4" enable-background="new    " d="M143.304 344.388c-18.332 7.333-64.977 30.554-78.216 37.683l0 0 c10.999 6.9 16.1 23.6 17.7 40.533c0.203 1.6 0.4 3.1 0.6 4.685c0.203 1.4 0.4 2.4 0.6 3.1 c0 0.2 0 0.6 0.2 0.814c12.018-32.793 54.995-67.42 56.625-70.068c0.814-1.222-1.019-6.518 1.833-11.609 C146.359 343 153.5 340.1 143.3 344.388z"/>
		<path opacity="0.4" enable-background="new    " d="M186.893 498.172c9.369-18.739 9.573-36.664 9.369-57.644 c0-8.759 6.314-21.184 3.056-17.721c-12.222 13.646-42.978 39.312-65.18 40.737C165.302 462.5 177.5 478.2 186.9 498.172z"/>
		<path d="M47.163 399.383c11.61-8.351 71.698-40.329 86.16-44.811c14.461-4.685 9.98-10.185 9.98-10.185 s-58.662 25.257-93.696 47.1"/>
		<path opacity="0.4" enable-background="new    " d="M218.26 340.518c-4.685-1.833-8.351 3.667-7.129 9 c1.223 5.3 12.2 11.2 11.6 30.553c-0.407 15.888-3.87 22.405-3.87 22.405l-7.74-9.776c0 0-1.222-21.999-3.87-25.258 c-2.647-3.259-10.999-9.166-14.258-12.221c-3.259-3.056 3.666-7.129 3.259-12.833c-0.407-5.499 3.463-16.498 3.463-16.498 L218.26 340.518z"/>
		<path opacity="0.4" enable-background="new    " d="M246.573 427.288c-0.407 15.3 3.1 37.9 4.5 48.7 c1.426 10.8 3.3 11.6 0 16.499c-3.259 4.685-7.536 12.425-7.536 12.425l-14.055-1.223c0 0 11.203-14.258 11.813-16.906 c0.611-2.647-5.703-22.812-5.703-22.812L246.573 427.288z"/>
		<path opacity="0.4" enable-background="new    " d="M219.483 284.708c2.852 6.3 6.3 9.2 11.8 11 c3.259 1.2 16.1 2.9 21.184-2.852c2.24-2.648 0.814-9.777 0.814-9.777l-11.61 9.369L226 289.596l-1.833-4.685 L219.483 284.708z"/>
		<path fill="#88CE02" stroke="#000000" stroke-width="1.586" stroke-linejoin="round" stroke-miterlimit="10" d="M220.704 298.8 c5.296 3.5 18.5 6.7 22.2 7.333c3.666 0.8 9.573-3.87 12.425-5.092c3.056-1.426 8.352-2.241 14.5 3.3 c0.611 0.611-1.426 3.259-1.426 3.259c-0.204-0.204-1.426-0.204-3.056-1.019c-1.629-0.814-3.055-1.426-5.499-1.222 c-10.185 1.222-11.814 4.685-20.776 2.647s-11.203-3.666-19.961-3.259"/>
		<path fill="#88CE02" d="M218.871 299.373c6.722 2.9 19.8 5.9 23.4 6.722s9.573-2.852 12.425-4.685 c5.093-3.259 11.61-0.611 14.7 2.852c2.036 2.2 2.9 3.7 2.9 4.277c0 0.814-2.444 0-2.444 0 c-1.426-0.611-3.056-0.814-4.277-1.63c-1.63-0.814-3.26-2.036-5.703-1.833c-10.185 1.223-12.222 4.685-20.98 2.6 c-8.758-2.037-10.999-3.87-20.368-3.26"/>
		<path d="M187.3 489.616c-0.407-0.407 0.407-0.814 0-0.814c-2.647 0-6.314-2.037-8.352-4.889 c-8.758-12.628-21.591-20.979-44.811-20.368c-34.831 0.814-48.682-13.443-51.329-40.737c-1.426-14.869-5.5-29.331-13.851-37.479 l-4.889 3.056c9.369 8.1 12.4 21.4 14.5 39.515c3.259 27.3 25.3 39.9 50.9 40.3 c26.683 0.4 36.3 5.9 46.2 19.351c3.259 4.3 6.9 5.7 9.8 6.314L187.3 489.616z"/>
		<path opacity="0.4" enable-background="new    " d="M281.811 358.646c0.611 3.1 2.2 9 5.5 11.8 c1.427 1.4 1.6 1.8 0.4 1.833c-1.223 0-10.185-0.407-10.185-0.407l-2.444-4.277L281.811 358.646z"/>
	</g>
</g>
</svg>
